<svg width="378" height="183" viewBox="0 0 378 183" fill="none" xmlns="http://www.w3.org/2000/svg">
<path d="M29.8636 169.693C30.0929 169.573 31.027 169.111 31.4288 168.906C30.9905 169.173 29.0361 170.127 29.8636 169.693ZM69.8924 146.293C69.5621 146.47 69.2317 146.646 68.9013 146.822C69.8556 146.352 71.1316 145.707 72.0191 145.274C72.1642 145.203 71.8023 145.416 72.1447 145.246C72.4872 145.077 72.4037 145.074 72.899 144.822C73.4548 144.54 76.0208 143.289 76.9054 142.847C80.2131 141.194 83.5412 139.512 86.8656 137.876C83.4542 139.606 86.9181 137.916 87.8716 137.428C88.0829 137.319 88.0163 137.27 91.4613 135.579C93.6508 134.505 91.6794 135.6 95.3017 133.744C92.4657 135.07 95.2248 133.706 97.4214 132.614C97.8001 132.425 100.865 130.919 102.216 130.246C102.678 130.016 103.366 129.633 103.979 129.328C104.401 129.119 104.73 128.98 105.356 128.668C108.278 127.218 111.153 125.796 114.086 124.356C112.418 125.289 115.449 123.73 115.589 123.667C116.298 123.346 113.144 124.911 114.401 124.31C116.144 123.446 117.888 122.583 119.632 121.72C118.194 122.415 121.492 120.712 122.119 120.439C121.81 120.493 130.11 116.593 131.351 115.953C131.61 115.819 129.882 116.619 133.854 114.692C134.284 114.483 134.133 114.586 134.357 114.474C134.491 114.406 135.27 113.931 136.16 113.546C136.485 113.406 134.478 114.45 138.929 112.245C137.115 113.038 145.096 109.174 146.571 108.478C146.273 108.611 145.976 108.744 145.678 108.876C147.14 108.196 147.389 108.042 147.716 107.884C149.034 107.247 150.856 106.39 152.08 105.79C153.513 105.087 153.495 105.037 155.176 104.241C154.775 104.424 154.373 104.607 153.971 104.79C155.127 104.229 156.283 103.668 157.44 103.108C154.795 104.474 158.018 102.83 158.232 102.724C158.572 102.556 158.094 102.821 158.664 102.539C158.723 102.51 158.625 102.527 159.505 102.095C161.343 101.194 161.067 101.366 161.84 100.989C161.911 100.955 161.652 101.053 162.985 100.399C167.22 98.3193 162.971 100.426 162.81 100.508C162.598 100.616 164.098 99.9994 160.478 101.721C161.693 101.142 161.834 101.123 161.971 101.058C162.092 101 164.186 99.9747 164.301 99.9172C165.325 99.4023 164.405 99.8157 164.603 99.7131C164.766 99.6291 167.31 98.4372 167.862 98.0666C169.108 97.5561 167.2 98.4738 165.178 99.471C164.89 99.6304 167.124 98.5638 167.241 98.507C170.113 97.1121 168.492 97.8213 169.101 97.4761C169.42 97.2949 170.611 96.77 169.503 97.2378C172.108 95.9666 170.542 96.7667 170.713 96.6898C170.971 96.5736 171.875 96.1148 171.991 96.0615C172.16 95.9834 171.586 96.2856 172.251 95.972C172.361 95.9197 173.41 95.3695 172.029 96.0194C173.866 95.1344 173.701 95.1791 174.351 94.9354C175.561 94.2134 175.299 94.5557 175.8 94.3207C177.131 93.6958 176.705 93.7958 176.773 93.7578C177.242 93.4974 180.92 91.7534 181.822 91.3024C181.494 91.5374 178.917 92.7083 178.354 92.9962C176.474 93.9552 181.044 91.7319 179.703 92.4771C180.271 92.176 180.839 91.875 181.406 91.574C182.491 91.1114 180.997 91.8603 183.841 90.4627C184.287 90.1939 181.828 91.4447 182.309 91.1698C182.593 91.0078 184.246 90.2037 184.273 90.1775C184.3 90.1491 182.812 90.8869 183.038 90.7535C183.532 90.4622 189.006 87.8677 184.865 89.8963C186.022 89.3361 186.66 89.1316 187.651 88.6206C188.168 88.3542 185.856 89.3745 187.821 88.4029C188.296 88.1681 189.02 87.8178 190.087 87.3082C190.224 87.2907 187.89 88.3823 187.83 88.415C187.83 88.4155 187.829 88.416 187.828 88.4164C187.816 88.4233 187.819 88.4259 187.832 88.4254C187.898 88.4229 188.224 88.3411 188.286 88.3158C188.556 88.2029 194.143 85.4502 195.336 84.9321C194.834 85.1097 199.571 82.8831 200.077 82.6215C200.211 82.5516 199.685 82.7653 199.83 82.6918C200.733 82.2333 203.216 81.1103 204.35 80.5682C205.619 79.9617 205.45 80.0094 205.521 79.9756C206.087 79.7057 205.644 79.941 205.99 79.7751C206.515 79.5228 210.093 77.814 210.268 77.7261C210.319 77.6998 209.723 77.947 210.497 77.5693C210.63 77.5044 210.566 77.58 212.851 76.4679C215.599 75.1307 210.913 77.3378 212.04 76.7513C213.84 75.9583 213.753 75.9331 214.243 75.7039C214.413 75.6249 215.69 75.0717 217.044 74.4216C216.075 74.8937 215.103 75.3673 214.128 75.8425C215.094 75.3905 216.951 74.4916 217.742 74.1256C218.128 73.9469 217.83 74.1358 218.662 73.7373C218.838 73.6529 219.498 73.2239 217.333 74.3084C217.142 74.3585 218.193 73.8836 218.669 73.6447C218.742 73.6085 219.002 73.4158 219.633 73.1576C219.783 73.0967 218.262 74.0199 222.334 71.9354C222.466 71.8679 221.991 72.0692 222.12 72.0027C222.205 71.9584 223.28 71.4567 223.395 71.3981C223.514 71.3376 222.989 71.5609 223.13 71.4882C223.855 71.1152 224.862 70.7438 223.342 71.459C223.855 71.2284 224.366 70.9981 224.877 70.7684C224.304 70.9597 225.662 70.3716 226.358 70.0381C230.812 67.9042 227.805 69.2814 228.561 68.8946C229.774 68.2741 228.886 68.8351 230.697 67.9327C230.865 67.8493 228.613 68.8595 232.983 66.8178C232.342 67.1242 231.7 67.4314 231.057 67.7393C231.46 67.6263 233.377 66.6325 233.525 66.5612C235.223 65.7446 234.087 66.3116 236.59 65.0846C236.813 64.9752 237.31 64.7593 237.785 64.5246C239.755 63.5512 235.154 65.7472 235.009 65.7844C234.948 65.7972 239.908 63.4509 240.101 63.3672C240.848 63.0465 237.825 64.4593 238.42 64.2186C238.647 64.1246 245.749 60.7349 247.173 60.079C248.842 59.3095 249.624 59.0471 249.589 58.9441C250.1 58.8201 250.48 58.5609 250.691 58.4622C253.245 57.2684 253.217 57.2833 255.419 56.2346C255.905 56.0034 256.328 55.8396 256.498 55.7539C256.596 55.704 256.395 55.7606 256.879 55.5208C257.558 55.1847 261.62 53.3138 261.921 53.1937C262.229 53.0699 260.224 54.0006 260.595 53.8605C262.033 53.188 263.463 52.508 264.936 51.8199C265.549 51.5337 265.244 51.7013 265.508 51.5776C265.623 51.5241 267.719 50.5193 267.625 50.5545C267.425 50.6267 260.877 53.7157 262.586 52.871C262.917 52.7069 264.116 52.1996 263.903 52.232C269.733 49.5096 275.519 46.8152 281.397 44.0853C278.057 45.6957 274.3 47.4078 270.774 49.0652C270.285 49.2948 268.659 50.0505 268.872 49.9847C271.882 48.5824 275.537 46.8532 278.434 45.5215C278.527 45.4789 278.2 45.6626 278.547 45.505C279.199 45.2093 281.27 44.1924 281.622 44.0407C281.684 44.0149 280.513 44.6021 280.884 44.4548C281.835 44.0767 282.013 43.8472 282.805 43.4792C283.385 43.2096 287.627 41.3011 288.621 40.7937C289.7 40.2429 285.557 42.1944 285.843 42.0219C288.657 40.6704 291.481 39.3968 294.164 38.1437C294.21 38.1218 293.792 38.2858 294.383 38.0065C295.411 37.521 295.695 37.4322 296.196 37.2061C296.728 36.9662 298.646 36.0681 298.916 35.9587C298.95 35.945 298.574 36.1626 298.515 36.1913C297.675 36.5994 297.359 36.6906 297.285 36.7242C297.003 36.8532 296.734 36.9995 296.476 37.1182C296.051 37.3138 295.81 37.4063 295.246 37.6666C294.857 37.8463 295.247 37.703 294.871 37.8759C294.735 37.9387 293.211 38.5611 293.104 38.6994C293.093 38.7304 305.209 33.1357 306.475 32.5287C305.43 33.0027 304.331 33.5017 303.316 33.9625C305.439 33.0027 307.992 31.7483 308.201 31.7561C316.072 28.1154 323.948 24.4839 331.818 20.861C333.223 20.2216 332.429 20.6546 334.785 19.5484C334.179 19.8064 333.531 20.0841 332.953 20.3294C334.181 19.7778 339.374 17.4119 340.272 16.9844C340.381 16.9325 340.519 16.8079 341.821 16.2025C342.977 15.6647 343.144 15.6332 343.795 15.3419C344.333 15.1009 344.922 14.8174 345.08 14.7475C345.2 14.6938 345.259 14.6947 345.548 14.5663C346.457 14.1619 345.697 14.4339 346.623 14.0971C346.408 14.1997 346.192 14.3027 345.975 14.406C347.071 13.914 348.538 13.2783 346.97 14.0213C346.699 14.1499 346.923 14.0197 346.719 14.1136C338.589 17.867 345.167 14.8867 347.905 13.5823C348.687 13.2616 352.7 11.3864 352.853 11.3235C353.05 11.2439 352.349 11.5995 353.294 11.1906C353.52 11.0928 358.917 8.57742 356.974 9.52821C356.55 9.73525 354.007 10.8977 353.341 11.2065C354.883 10.58 358.276 8.89112 358.68 8.70701C360.257 7.99117 355.681 10.167 359.23 8.53615C361.887 7.3142 359.38 8.41795 360.386 7.92824C361.027 7.61864 364.087 6.26252 363.964 6.23843C365.057 5.72244 364.431 6.05579 364.568 5.99536C364.723 5.92627 366.753 4.95894 367.438 4.65649C367.524 4.61849 367.271 4.77807 367.361 4.73978C367.553 4.65646 369.559 3.71209 369.618 3.68055C369.667 3.65507 369.189 3.84179 369.376 3.74525C369.555 3.65178 371.561 2.72071 371.641 2.67175C371.808 2.57838 369.357 3.73726 369.769 3.50321C370.929 2.97129 372.572 2.17125 373.371 1.75996C373.284 1.80622 372.962 1.96082 372.612 2.12708C372.298 2.2758 371.951 2.43861 371.769 2.52243C371.885 2.40894 374.214 1.31019 373.438 1.72437C373.93 1.46605 373.583 1.61664 373.853 1.46462C373.927 1.42353 374.609 1.09851 374.729 1.0312C374.748 1.02001 374.041 1.33287 374.175 1.2568C374.374 1.14231 376.596 0.0855675 376.709 0.0350188C377.184 -0.176841 375.536 0.635631 375.362 0.742587C375.363 0.746996 376.837 0.0903149 376.837 0.0934799C376.96 0.0827786 375.331 0.829793 375.521 0.781145C375.944 0.587733 376.348 0.403223 376.731 0.227773C375.223 1.00022 372.235 2.38695 371.566 2.74894C373.866 1.65614 376.332 0.478036 376.354 0.576744C376.381 0.611046 375.374 1.11993 375.41 1.11413C375.603 1.06518 376.95 0.372789 376.979 0.360311C377.019 0.343614 377.038 0.337162 377.039 0.339122C377.039 0.339123 377.039 0.339124 377.039 0.339125C377.091 0.340392 375.1 1.31208 374.987 1.37565C374.81 1.48018 375.775 1.10302 375.776 1.12064C375.764 1.12815 375.381 1.31682 375.079 1.46996C374.804 1.61003 374.582 1.72821 374.817 1.63268C375.271 1.44999 376.592 0.818643 376.604 0.815308C376.879 0.704397 374.64 1.79151 374.63 1.8061C374.614 1.81629 374.892 1.69488 375.167 1.57492C375.478 1.43752 375.797 1.29686 375.815 1.29332C375.848 1.28767 374.937 1.74424 374.636 1.91927C374.395 2.05751 375.129 1.72738 375.002 1.79148C374.952 1.81875 372.841 2.81659 372.756 2.85986C372.616 2.93226 373.083 2.7405 373.026 2.77467C372.923 2.83369 372.296 3.11859 372.379 3.09003C372.391 3.09357 375.09 1.91645 375.032 1.96858C375.05 2.0059 372.285 3.21123 374.87 2.16446C374.893 2.15451 375.452 1.87606 375.497 1.85585C375.889 1.70136 373.908 2.69633 376.373 1.51146C371.919 3.68798 375.827 1.84042 375.186 2.22117C374.979 2.34937 373.213 3.1965 373.186 3.21302C373.382 3.1571 373.948 2.86148 374.143 2.78712C374.26 2.74233 372.662 3.5353 373.041 3.38188C373.218 3.31191 374.926 2.49981 374.966 2.48253C375.601 2.20495 374.844 2.59022 374.988 2.53911C375.037 2.52152 375.298 2.40055 375.549 2.28336C375.835 2.14905 376.099 2.02344 376.113 2.01788C376.142 2.0063 375.782 2.19078 375.426 2.37403C375.087 2.54959 374.691 2.75277 374.554 2.82603C374.348 2.93607 375.146 2.57729 375 2.65178C374.158 3.0849 372.075 3.9833 374.058 3.16371C374.181 3.11309 374.876 2.78099 374.893 2.77411C375.331 2.59965 374.066 3.20192 373.824 3.34302C373.437 3.57208 375.323 2.65487 373.757 3.42784C374.974 2.88328 375.533 2.61748 376.926 1.94172C373.208 3.73956 371.911 4.46636 376.059 2.49787C374.733 3.12705 374.935 3.09798 374.534 3.28924C374.413 3.34719 373.856 3.59377 373.427 3.79772C373.051 3.97751 372.807 4.11289 373.257 3.97682C373.335 3.95936 374.573 3.35064 374.201 3.56519C371.394 4.87878 374.114 3.6315 374.154 3.61695C374.157 3.71223 367.225 6.88251 366.125 7.39894C364.714 8.06592 363.586 8.65861 363.283 8.79956C362.307 9.25144 363.104 8.84692 362.88 8.93728C362.647 9.03279 359.889 10.377 359.763 10.4314C359.223 10.6663 359.75 10.3805 359.693 10.4045C359.007 10.6964 355.317 12.4335 354.244 12.9185C354.295 12.9226 356.396 11.9548 355.102 12.5963C353.583 13.3484 353.431 13.2978 353.392 13.3109C346.441 16.519 339.456 19.7378 332.476 22.9602C332.565 22.983 337.143 20.8229 337.242 20.7854C337.862 20.5493 330.184 24.0905 329.182 24.5311C329.92 24.2041 330.652 23.8801 331.378 23.5591C330.159 24.1952 327.427 25.3605 325.665 26.2071C325.094 26.4817 326.209 25.9948 326.186 26.0073C325.554 26.328 324.502 26.7922 325.266 26.4005C323.702 27.1602 323.879 27.0379 322.7 27.5796C322.638 27.6079 323.161 27.3961 322.224 27.8416C321.789 28.0481 319.406 29.1504 319.088 29.3232C318.961 29.3931 320.223 28.925 320.333 28.7747C322.937 27.6189 321.143 28.355 322.144 27.8944C322.308 27.8191 321.93 28.0491 324.492 26.8392C324.012 27.1608 321.115 28.4252 320.609 28.6713C319.606 29.1599 323.801 27.2719 324.605 26.8227C324.265 27.0581 324.918 26.6887 325.871 26.2516C326.912 25.7741 326.468 26.0027 327.028 25.7441C328.554 25.0399 327.894 25.2896 329.17 24.7503C327.854 25.2042 331.376 23.7113 332.366 23.2949C330.772 24.0383 329.088 24.8234 327.525 25.5532C327.619 25.5177 327.714 25.4821 327.808 25.4466C327.387 25.6398 326.964 25.834 326.539 26.0291C326.604 25.9913 326.669 25.9535 326.734 25.9158C324.563 26.969 323.983 27.1809 323.803 27.2631C321.533 28.3056 318.833 29.5547 316.522 30.6241C316.174 30.7853 316.445 30.7099 313.883 31.8567C313.062 32.2243 313.819 31.8347 312.893 32.2691C311.771 32.8953 311.755 32.818 311.412 32.977C310.447 33.4242 309.86 33.7225 309.77 33.7643C308.57 34.3248 306.786 35.1475 305.434 35.7793C305.408 35.7914 306.125 35.4917 305.242 35.8915C304.94 36.0282 302.203 37.1589 299.809 38.3171C300.439 38.034 301.065 37.7523 301.689 37.4719C300.947 37.803 295.856 40.2052 297.12 39.655C297.879 39.3245 299.718 38.38 299.963 38.3528C298.249 39.1215 288.893 43.5163 288.163 43.8381C288.061 43.8828 288.671 43.57 288.53 43.6321C288.424 43.6791 286.269 44.6906 285.974 44.8174C285.801 44.8919 286.752 44.4311 286.67 44.4592C286.595 44.4865 283.898 45.7333 283.77 45.8283C284.409 45.516 286.277 44.6565 285.309 45.1379C285.179 45.2023 284.533 45.4811 284.384 45.5551C282.993 46.2474 287.205 44.2714 287.862 43.9658C285.188 45.2572 281.166 47.0824 278.061 48.5638C276.808 49.1208 279.895 47.6615 278.474 48.3017C275.558 49.6153 277.718 48.6959 277.626 48.7428C276.928 49.0986 274.422 50.1128 274.465 50.2135C273.406 50.6915 273.742 50.5184 272.256 51.2307C272.456 51.1454 272.655 51.0603 272.855 50.9752C271.204 51.8179 267.686 53.2916 267.936 53.161C268.624 52.8021 270.445 52.0046 270.597 51.9321C270.827 51.8224 271.431 51.4165 273.991 50.327C274.995 49.7743 269.965 52.1573 272.239 51.0361C270.661 51.7838 264.374 54.6768 263.437 55.1539C263.335 55.2067 263.854 55.0446 262.292 55.737C261.548 56.0666 263.322 55.2321 262.978 55.3751C261.957 55.7936 247.698 62.5479 245.028 63.8175C244.854 63.9001 244.908 63.8491 244.737 63.9304C244.211 64.1797 242.298 65.1225 241.341 65.564C243.336 64.6664 239.481 66.4951 238.539 66.9362C237.076 67.6219 237.148 67.5432 236.511 67.8355C234.055 68.9629 230.283 70.861 228.363 71.6748C228.507 71.7049 225.061 73.1975 223.503 73.9392C222.296 74.5131 220.584 75.3947 222.219 74.6552C220.147 75.6385 217.96 76.7005 215.996 77.6447C215.671 77.8008 216.108 77.5631 215.554 77.8304C215.504 77.8548 215.445 77.9112 214.97 78.1416C211.095 80.0191 212.96 79.0665 212.226 79.3997C211.814 79.5866 211.511 79.7268 211.289 79.8313C213.556 78.7407 216.173 77.4793 216.884 77.1389C216.245 77.3807 211.849 79.5575 210.538 80.1685C210.492 80.1897 210.636 80.086 210.59 80.1078C210.589 80.1082 210.588 80.1087 210.587 80.1091C210.1 80.3392 206.985 81.8444 207.644 81.5708C207.82 81.4971 209.259 80.8077 210.953 79.9931C210.497 80.2192 210.855 80.0869 210.774 80.127C209.801 80.6122 207.37 81.7387 206.507 82.1476C206.31 82.2409 206.333 82.2546 206.302 82.2698C205.528 82.635 205.817 82.425 205.054 82.8649C203.619 83.4642 207.674 81.5949 207.376 81.6805C207.124 81.7549 198.192 86.0675 198.226 86.1231C198.192 86.132 198.064 86.1841 197.805 86.298C197.236 86.5482 194.756 87.7495 194.329 87.9683C194.257 88.0053 194.313 88.0467 194.223 88.0906C194 88.1994 190.926 89.6276 189.795 90.2143C190.417 89.9235 191.038 89.6333 191.659 89.3436C190 90.1438 189.192 90.5385 188.919 90.6764C188.761 90.7566 188.784 90.7499 188.924 90.6869C189.084 90.6152 189.395 90.4709 189.764 90.2989C189.826 90.269 189.888 90.2419 189.948 90.2135C190.918 89.7601 192.156 89.1776 192.177 89.173C192.219 89.1636 190.445 90.0276 188.952 90.7442C187.654 91.3671 186.577 91.8741 187.131 91.5768C187.235 91.5214 188.419 90.9584 188.934 90.7066C189.208 90.5722 189.293 90.5257 188.926 90.6901C188.879 90.7111 188.824 90.7355 188.762 90.7637C188.506 90.8791 186.639 91.7939 186.539 91.8374C186.071 92.0405 187.912 91.1227 188.891 90.6189C189.318 90.3993 189.582 90.258 189.425 90.3198C189.253 90.4108 189.071 90.5042 188.882 90.5996C188.001 91.0448 186.965 91.5309 186.03 91.992C185.514 92.2465 185.4 92.3356 185.337 92.367C184.385 92.8358 184.907 92.5477 184.589 92.7025C184.418 92.7856 182.566 93.7573 182.881 93.5C176.714 96.5616 181.196 94.3914 184.997 92.5484C183.81 93.1602 181.448 94.2844 180.394 94.8032C180.016 94.9893 180.255 94.909 179.617 95.2248C178.304 95.8741 171.996 98.8916 170.353 99.6801C171.355 99.1816 171.046 99.2934 170.27 99.6727C169.494 100.052 170.167 99.7765 170.017 99.8545C169.857 99.9377 166.203 101.689 165.599 101.989C168.336 100.641 167.702 100.91 165.372 102.039C165.704 101.867 166.036 101.694 166.369 101.521C165.01 102.197 162.118 103.546 161.336 103.944C161.213 104.006 161.671 103.816 161.602 103.851C160.915 104.199 158.549 105.318 158.444 105.381C158.354 105.433 159.369 104.966 159.001 105.158C158.925 105.198 157.94 105.635 156.991 106.108C156.639 106.283 156.864 106.204 156.776 106.249C156.039 106.623 156.457 106.368 155.103 107.036C154.112 107.525 153.391 107.927 152.011 108.584C156.546 106.435 152.744 108.263 150.867 109.199C150.566 109.349 150.847 109.267 149.031 110.127C152.833 108.17 147.914 110.62 146.904 111.113C146.849 111.139 146.815 111.119 146.32 111.361C146.278 111.381 146.348 111.372 145.889 111.598C141.531 113.748 144.311 112.36 143.472 112.746C143.115 112.911 141.006 113.978 140.435 114.258C140.304 114.323 140.354 114.272 139.846 114.522C138.947 114.964 138.152 115.381 137.559 115.674C137.49 115.708 137.471 115.677 136.351 116.239C136.036 116.397 135.686 116.583 136.14 116.372C137.646 115.672 140.447 114.233 142.147 113.439C143.697 112.715 138.854 115.09 138.602 115.214C138.509 115.259 139.448 114.779 138.485 115.247C137.663 115.647 136.19 116.438 134.962 117.026C134.868 117.071 133.868 117.503 133.911 117.478C133.951 117.456 135.446 116.709 135.222 116.802C135.195 116.813 134.242 117.282 134.112 117.332C133.954 117.395 133.482 117.474 133.277 117.571C132.751 117.82 133.105 117.681 132.766 117.845C132.039 118.196 129.507 119.395 129.447 119.477C129.863 119.276 130.28 119.075 130.696 118.873C128.388 120.012 129.382 119.547 129.058 119.715C128.71 119.897 128.791 119.811 128.01 120.19C127.841 120.273 124.586 121.883 124.653 121.87C126.443 120.958 125.798 121.333 125.881 121.293C126.198 121.141 126.589 120.917 127.012 120.709C129.993 119.249 127.009 120.766 127.718 120.431C127.961 120.315 128.433 120.056 128.536 120.007C128.872 119.847 128.891 119.873 129.113 119.761C129.63 119.5 129.003 119.758 129.043 119.735C129.495 119.481 131.33 118.619 130.219 119.22C130.907 118.902 130.96 118.809 131.51 118.566C132.603 118.082 130.991 118.86 130.56 119.081C129.012 119.873 128.539 120.08 126.333 121.173C125.539 121.567 124.61 122.057 124.241 122.24C124.009 122.355 121.77 123.344 121.775 123.519C120.915 123.926 119.531 124.491 118.654 124.928C117.867 125.321 118.143 125.248 118.07 125.286C117.959 125.345 117.003 125.811 116.684 125.978C116.31 126.173 116.508 126.099 115.912 126.403C114.429 127.159 114.443 127.088 114.288 127.16C112.487 128.001 113.304 127.689 112.911 127.89C112.546 128.077 107.378 130.595 106.303 131.151C106.739 130.922 107.176 130.694 107.612 130.465C106.806 130.824 105.995 131.29 105.951 131.24C105.837 131.412 104.176 132.157 103.688 132.402C103.495 132.498 103.518 132.507 103.277 132.627C102.335 133.097 100.201 134.138 99.6939 134.4C97.4984 135.531 103.185 132.785 103.633 132.568C102.74 133.008 97.7058 135.529 100.047 134.425C100.409 134.254 101.023 133.898 101.224 133.796C102.581 133.11 101.528 133.679 101.636 133.629C101.821 133.545 102.7 133.065 102.939 132.952C103.018 132.914 102.527 133.2 103.827 132.557C103.204 132.906 99.5375 134.689 99.0624 134.934C98.8931 135.022 99.9977 134.561 96.8384 136.043C96.8779 136.032 96.9174 136.02 96.9568 136.009C95.2178 136.875 93.4794 137.741 91.741 138.609C91.9226 138.5 92.8845 137.984 91.6574 138.602C90.951 138.957 91.4916 138.73 91.4274 138.764C90.7951 139.087 79.5448 144.673 77.3689 145.766C76.6286 146.137 74.5768 147.195 74.4196 147.274C73.4793 147.746 70.1368 149.395 69.4739 149.732C69.06 149.942 69.4686 149.772 69.0971 149.956C68.7517 150.128 69.0953 149.922 68.9924 149.972C68.1389 150.386 61.7149 153.647 60.173 154.389C61.1115 153.928 65.7494 151.537 65.6462 151.565C65.6245 151.573 64.4806 152.12 64.2517 152.247C63.8536 152.417 62.5625 153.153 61.834 153.501C61.7517 153.54 62.053 153.339 60.7616 153.977C60.3168 154.197 59.1709 154.811 57.9847 155.362C56.3005 156.227 47.3814 160.646 46.7937 160.997C46.7767 161.008 48.036 160.393 47.199 160.836C46.0864 161.425 47.0566 160.838 45.7428 161.491C45.5448 161.589 41.9031 163.434 41.7863 163.499C40.7046 164.1 43.8988 162.512 43.8569 162.54C43.7522 162.609 41.1095 163.951 41.0006 164.002C40.8966 164.05 43.0252 162.904 40.4431 164.234C40.7437 164.091 41.0443 163.948 41.3449 163.805C40.1321 164.434 39.9955 164.452 39.6988 164.598C38.7764 165.054 37.8138 165.617 36.304 166.284C35.9048 166.46 36.5395 166.112 36.4892 166.133C36.0081 166.342 35.4486 166.716 34.7186 167.017C34.6637 167.039 36.2826 166.181 33.4244 167.625C33.6237 167.531 33.8231 167.436 34.0224 167.342C33.6252 167.557 30.7349 169.027 30.3442 169.221C29.2032 169.788 30.1759 169.25 29.0354 169.832C29.7941 169.512 26.3225 171.277 26.5002 171.133C26.0427 171.433 23.0697 172.886 21.682 173.588C20.8063 174.031 19.0333 174.961 18.7538 175.099C18.4133 175.268 18.4972 175.178 17.8814 175.48C17.7058 175.566 15.8993 176.518 14.2818 177.291C13.9683 177.441 13.2856 177.708 13.8531 177.399C14.8244 176.871 16.7142 175.976 16.6714 175.951C16.623 175.924 14.1248 177.223 13.4465 177.562C10.3152 179.123 12.0945 178.165 12.0077 178.192C11.7837 178.267 10.0803 179.134 10.0077 179.168C9.70669 179.305 10.9015 178.666 10.9099 178.637C10.9192 178.601 9.25387 179.392 9.62297 179.193C10.1514 178.909 11.6799 178.179 11.7747 178.129C13.0081 177.471 11.2712 178.282 10.7861 178.493C10.639 178.557 11.2002 178.253 11.0806 178.311C9.25524 179.19 10.7412 178.585 9.53622 179.188C8.4611 179.726 9.82042 178.987 9.77842 179.006C9.72435 179.03 8.44218 179.68 8.2348 179.769C8.13251 179.812 11.4249 178.044 11.269 178.082C10.2102 178.63 9.15146 179.178 8.09274 179.726C7.98749 179.725 9.5318 178.979 9.68761 178.894C10.0013 178.723 9.10289 179.153 9.13403 179.12C9.15005 179.101 10.1757 178.54 9.22838 179.006C8.9028 179.166 8.23964 179.542 7.04634 180.11C11.1245 177.985 8.27214 179.406 8.14355 179.452C8.01744 179.497 9.95569 178.465 7.58402 179.68C7.43833 179.649 7.62171 179.628 8.28903 179.27C9.10651 178.831 7.18175 179.775 10.214 178.259C10.0221 178.307 7.59486 179.546 7.46471 179.608C7.35224 179.662 7.88222 179.368 7.68641 179.459C5.37107 180.542 6.95246 179.781 6.26838 180.068C6.2075 180.093 4.04712 181.171 5.68127 180.33C8.65899 178.797 9.93496 178.219 10.3759 177.845C8.14186 178.916 5.50615 180.355 4.83616 180.698C3.81024 181.223 4.86162 180.657 4.73162 180.714C4.68655 180.734 3.80267 181.187 3.78981 181.191C3.11246 181.422 7.72857 179.183 9.1602 178.435C8.76746 178.618 8.37474 178.801 7.98201 178.983C8.50516 178.716 9.02831 178.449 9.55148 178.183C7.04393 179.424 9.45828 178.217 10.0427 177.827C10.1739 177.74 8.55002 178.601 10.3955 177.605C9.01174 178.295 9.44374 178.057 8.20621 178.712C8.22343 178.666 11.0146 177.205 12.1147 176.627C8.18473 178.583 10.4712 177.556 7.0595 179.221C6.45082 179.576 8.06173 178.747 7.93314 178.82C7.47188 179.082 6.34674 179.612 5.04996 180.368C4.83884 180.491 5.77855 180.061 4.41594 180.753C4.2652 180.829 3.38087 181.238 3.39169 181.23C3.49363 181.146 4.35713 180.718 4.38711 180.689C4.41521 180.662 3.46042 181.156 3.45569 181.155C3.40987 181.138 4.24866 180.735 4.12317 180.787C3.8521 180.897 0.371286 182.584 4.87842 180.313C1.16186 182.252 4.41826 180.592 5.86574 179.837C6.23491 179.645 6.31916 179.577 6.84445 179.302C7.52013 178.947 8.32083 178.551 8.67095 178.368C9.04747 178.172 6.87379 179.221 9.99106 177.652C8.38511 178.412 5.61341 179.883 4.04308 180.644C0.87435 182.177 6.18987 179.452 6.74173 179.163C6.88865 179.086 6.38001 179.313 6.47771 179.261C6.63754 179.176 9.66556 177.65 9.95265 177.478C10.2389 177.305 8.84625 178.042 8.74155 178.067C8.6706 178.084 12.3027 176.203 10.3239 177.196C8.96006 177.881 6.48371 179.218 6.02831 179.368C8.02587 178.344 10.0234 177.321 12.0213 176.298C10.9136 176.83 9.80625 177.362 8.69875 177.895C10.9399 176.744 12.8955 175.785 15.0108 174.667C9.84455 177.191 16.6429 173.758 16.7128 173.711C16.7348 173.692 14.6844 174.652 14.3538 174.805C16.1287 173.872 21.557 171.103 18.3372 172.637C18.9234 172.362 20.2985 171.609 20.2784 171.615C20.0831 171.669 17.0465 173.239 17.5276 172.955C18.085 172.626 18.9176 172.266 19.8019 171.812C24.3394 169.486 22.9987 169.934 27.5753 167.654C27.4813 167.694 27.3872 167.733 27.2932 167.772C32.2575 165.273 37.2241 162.778 42.1926 160.288C44.1061 159.253 49.2586 156.617 51.8016 155.347C52.3134 155.092 54.8398 153.86 55.0318 153.77C55.3877 153.603 53.4599 154.576 54.3413 154.157C54.5273 154.068 58.7855 151.947 58.4657 152.068C57.9874 152.303 56.5041 153.067 56.2564 153.182C54.5144 153.988 67.648 147.459 68.2885 147.115C67.9929 147.25 67.6973 147.385 67.4016 147.52C68.2319 147.111 69.0621 146.702 69.8924 146.293ZM33.1667 167.912C32.687 168.193 31.433 168.798 30.7035 169.178C29.6958 169.703 28.0341 170.696 28.7146 170.199C30.1982 169.436 31.6825 168.674 33.1667 167.912ZM54.9672 156.987C53.9588 157.473 54.7002 157.015 55.534 156.632C55.6265 156.589 56.3315 156.331 54.9672 156.987ZM44.4728 162.225C44.5144 162.203 45.3788 161.77 45.4095 161.756C46.1976 161.393 43.5914 162.699 44.4728 162.225ZM95.1326 136.849C94.0299 137.4 94.8601 137.065 95.5341 136.699C95.5765 136.676 95.2052 136.813 95.1326 136.849ZM94.3465 137.238C93.4615 137.608 91.7904 138.578 93.1576 137.885C93.2902 137.817 94.3875 137.221 94.3465 137.238ZM51.3903 158.751C51.4922 158.673 52.5284 158.165 52.9712 157.949C52.969 157.974 51.8209 158.531 51.3903 158.751ZM77.5498 145.642C77.5852 145.603 73.997 147.396 73.7635 147.54C74.3252 147.248 77.5159 145.678 77.5498 145.642ZM86.7456 141.031C86.6532 141.073 85.4148 141.695 85.4583 141.692C86.0735 141.41 87.162 140.84 86.7456 141.031ZM105.061 131.943C105.127 131.906 104.15 132.272 106.384 131.244C106.712 131.093 105.569 131.689 105.686 131.635C105.93 131.523 106.121 131.432 106.275 131.357C105.252 131.872 104.188 132.404 104.082 132.449C103.584 132.662 105.032 131.959 105.061 131.943ZM114.649 127.117C114.854 126.997 116.209 126.339 116.52 126.194C116.573 126.169 116.363 126.322 116.97 126.019C117.457 125.776 116.707 126.095 117.662 125.632C118.627 125.164 117.356 125.827 117.441 125.788C117.555 125.735 119.034 124.983 119 125.03C118.974 125.065 117.374 125.838 116.982 126.037C116.479 126.29 117.106 126.018 116.259 126.428C115.727 126.685 115.996 126.488 115.882 126.541C115.788 126.585 113.95 127.529 114.652 127.116C114.651 127.116 114.65 127.117 114.649 127.117ZM106.551 131.217C106.475 131.257 106.385 131.303 106.275 131.357C106.367 131.31 106.46 131.263 106.551 131.217ZM36.0403 166.431C36.5675 166.185 35.0371 166.984 34.4431 167.258C34.4245 167.246 35.9564 166.471 36.0403 166.431ZM107.482 130.704C109.014 129.963 107.901 130.535 106.551 131.217C106.977 130.994 106.968 130.953 107.482 130.704ZM64.2517 152.247C64.3177 152.219 64.3614 152.205 64.3715 152.212C64.1975 152.286 64.1795 152.287 64.2517 152.247ZM67.8095 150.488C69.0112 149.849 66.5396 151.087 66.566 151.101C66.5775 151.106 67.7614 150.514 67.8095 150.488ZM96.5505 136.149C96.4376 136.202 98.1243 135.251 95.6435 136.567C96.9911 135.912 95.5799 136.625 95.6048 136.622C95.671 136.618 97.9146 135.477 98.4188 135.24C98.7893 135.005 96.9234 135.976 96.5534 136.148C96.5524 136.148 96.5515 136.149 96.5505 136.149ZM132.017 118.595C131.723 118.77 130.748 119.239 130.092 119.559C130.386 119.385 131.361 118.916 132.017 118.595ZM304.416 36.2845C299.92 38.3992 299.268 38.5818 303.435 36.6944C303.517 36.6574 304.684 36.1479 304.416 36.2845ZM265.51 54.4125C265.061 54.5705 266.477 53.8972 267.411 53.481C267.622 53.3867 268.416 53.0674 267.537 53.4907C267.541 53.4248 266.162 54.0474 265.51 54.4125ZM108.331 130.25C108.761 130.002 110.138 129.347 110.86 128.995C110.432 129.236 108.972 129.944 108.331 130.25ZM289.499 43.1595C289.021 43.378 288.716 43.5661 288.8 43.5308C289.176 43.373 290.051 42.9283 289.499 43.1595ZM103.917 132.429C103.846 132.442 105.648 131.53 105.794 131.51C105.406 131.698 103.967 132.417 103.917 132.429ZM130.775 119.189C130.489 119.319 131.939 118.587 132.384 118.38C132.358 118.415 130.962 119.104 130.775 119.189ZM281.813 46.7611C281.385 46.9572 280.313 47.457 280.201 47.528C280.063 47.6156 281.631 46.8749 281.813 46.7611ZM361.507 9.81914C361.536 9.81451 359.973 10.5973 359.213 10.9334C357.807 11.5543 361.448 9.84098 361.507 9.81914ZM294.013 41.0332C295.386 40.4378 293.865 41.1037 293.941 41.1141C294.859 40.6885 297.111 39.643 295.544 40.3269C295.239 40.4602 294.441 40.8372 294.013 41.0332ZM292.751 41.6053C292.611 41.6855 291.643 42.1834 292.494 41.7836C292.887 41.5989 293.5 41.2614 292.751 41.6053ZM351.263 14.571C350.038 15.0957 355.592 12.5551 355.762 12.483C355.848 12.4473 355.904 12.4249 355.937 12.413C356.137 12.3077 357.165 11.8307 357.293 11.8041C356.988 11.9421 356.144 12.3346 356.043 12.3779C355.999 12.3963 355.967 12.4099 355.944 12.4188C355.589 12.6115 351.488 14.4752 351.263 14.571ZM342.039 18.7825C343.399 18.0953 343.67 18.0721 343.556 18.1281C342.081 18.8497 343.025 18.3396 342.978 18.3576C342.873 18.4001 341.817 18.9219 342.043 18.7805C342.041 18.7812 342.04 18.7818 342.039 18.7825ZM349.344 15.4394C349.404 15.4102 350.59 14.8663 350.637 14.8463C351.621 14.4267 348.262 15.9673 349.344 15.4394ZM121.878 123.482C122.705 123.084 121.913 123.513 121.36 123.771C121.314 123.792 121.148 123.832 121.878 123.482ZM292.082 41.9271C291.892 42.008 286.972 44.2747 287.279 44.1882C287.716 43.9773 293.278 41.415 292.082 41.9271ZM255.234 59.1712C256.099 58.7641 255.176 59.2525 254.711 59.4519C254.538 59.5261 255.018 59.2732 255.234 59.1712ZM101.457 133.598C100.575 134.064 100.72 133.893 101.508 133.536C101.539 133.522 101.491 133.579 101.457 133.598ZM262.192 55.9276C259.229 57.3535 259.861 56.886 263.768 55.1072C263.648 55.1712 263.528 55.2353 263.407 55.2994C267.951 53.1905 263.715 55.1664 262.624 55.6889C262.211 55.8866 262.57 55.7464 262.195 55.9264C262.194 55.9268 262.193 55.9272 262.192 55.9276ZM250.684 61.3135C247.744 62.5805 253.301 60.0364 254.849 59.2919C253.351 60.0476 251.36 60.9788 254.078 59.7484C250.135 61.6172 251.755 60.8054 251.598 60.8755C251.409 60.9601 250.809 61.2595 250.684 61.3135ZM258.292 57.7275C258.458 57.6456 259.725 57.0738 260.175 56.8585C259.561 57.188 257.19 58.2698 258.292 57.7275ZM332.395 23.2583C332.486 23.1841 332.738 23.0443 333.722 22.6022C333.426 22.7548 332.803 23.056 332.395 23.2583ZM32.1567 168.25C31.4821 168.589 30.1359 169.257 30.5611 169.077C30.6073 169.056 32.1624 168.266 32.1567 168.25ZM277.744 48.5929C277.604 48.6539 273.862 50.403 275.168 49.827C275.568 49.6505 278.95 48.0635 277.744 48.5929ZM297.243 39.5031C296.932 39.6475 295.66 40.2454 295.635 40.2647C295.559 40.3259 297.118 39.5866 297.243 39.5031ZM28.7455 169.942C28.6555 169.984 26.601 171.03 26.8335 170.928C27.2748 170.735 29.0542 169.797 28.7455 169.942ZM124.844 121.945C125.016 121.859 125.259 121.775 125.319 121.746C125.46 121.677 128.62 120.11 127.429 120.741C127.23 120.846 122.668 123.073 122.075 123.361C121.827 123.435 123.79 122.514 124.261 122.277C124.344 122.235 124.382 122.176 124.842 121.946C124.843 121.946 124.843 121.946 124.844 121.945ZM337.568 20.838C337.687 20.7527 341.448 18.9979 341.427 19.0446C340.121 19.6517 338.838 20.2477 337.568 20.838ZM335.646 21.7194C334.824 22.0771 336.728 21.1917 337.28 20.9466C337.296 20.9596 335.768 21.6661 335.646 21.7194ZM290.071 42.7281C289.699 42.909 290.868 42.4084 290.614 42.5356C290.451 42.6168 289.606 42.9938 289.343 43.1304C289.269 43.1694 290.142 42.8044 290.388 42.688C290.738 42.5226 290.385 42.654 290.767 42.4756C292.019 41.8917 293.205 41.3631 294.406 40.8037C294.515 40.7529 293.66 41.1271 294.59 40.6948C294.733 40.6281 295.61 40.255 296.708 39.739C299.058 38.5389 300.986 37.748 304.033 36.2949C303.916 36.3388 301.594 37.39 301.453 37.4544C298.802 38.668 294.228 40.7936 291.467 42.08C290.778 42.4007 291.121 42.2636 290.824 42.4027C290.589 42.5128 290.853 42.3476 290.071 42.7281ZM32.505 168.05C32.1668 168.179 31.0514 168.77 30.3312 169.132C30.5999 169.034 31.7982 168.398 32.505 168.05ZM318.725 29.5021C318.355 29.6747 317.193 30.1998 317.117 30.2478C316.99 30.3226 318.657 29.5618 318.725 29.5021ZM142.705 113.192C142.74 113.174 143.614 112.749 143.647 112.733C144.44 112.379 141.819 113.655 142.705 113.192ZM163.603 103.003C164.264 102.677 164.927 102.341 165.163 102.26C164.739 102.461 163.535 103.06 163.603 103.003ZM192.484 89.0142C192.33 89.0436 194.34 88.1039 194.717 87.9263C194.586 88.0092 192.598 88.9915 192.484 89.0142ZM332.197 23.2097C333.421 22.6474 333.136 22.7115 333.917 22.3818C334.043 22.3288 334.505 22.256 333.152 22.828C332.906 22.9318 333.84 22.4675 332.197 23.2097ZM264.409 54.8076C264.712 54.6355 265.697 54.1817 266.358 53.8738C266.219 53.961 264.882 54.5834 264.409 54.8076ZM25.0169 171.795C24.4321 172.049 21.8238 173.403 22.4836 173.096C22.5774 173.052 24.6482 171.98 25.0169 171.795ZM111.368 128.613C112.439 128.051 110.189 129.152 109.493 129.528C109.813 129.368 111.296 128.651 111.368 128.613ZM185.522 92.3505C185.574 92.3241 186.729 91.7689 186.782 91.7453C187.741 91.3161 184.471 92.8872 185.522 92.3505ZM156.708 106.306C157.112 106.082 159.851 104.769 160.474 104.494C159.9 104.812 156.206 106.585 156.708 106.306ZM327.135 25.566C328.014 25.1584 328.802 24.8031 329.647 24.4245C329.459 24.5341 327.24 25.5344 327.135 25.566ZM189.764 90.2989C189.826 90.269 189.888 90.2419 189.948 90.2135C189.885 90.2426 189.824 90.271 189.764 90.2989ZM307.473 34.6482C306.731 34.9838 306.899 34.9472 306.946 34.927C307.509 34.6793 308.313 34.2692 307.473 34.6482ZM31.653 168.418C31.3868 168.515 30.1815 169.154 29.478 169.501C29.6931 169.422 31.0906 168.707 31.653 168.418ZM247.548 62.717C246.6 63.1235 250.364 61.2985 251.16 60.9499C251.232 60.9407 247.686 62.657 247.548 62.717ZM107.979 130.231C107.894 130.243 106.349 131.043 106.686 130.891C106.899 130.794 108.03 130.224 107.979 130.231ZM253.049 60.0762C253.396 59.9033 254.223 59.5427 253.943 59.6926C253.583 59.8849 252.959 60.121 253.049 60.0762ZM284.656 45.2269C284.504 45.2934 282.457 46.2795 283.319 45.907C283.917 45.6485 283.994 45.57 284.133 45.5053C284.269 45.4417 287.655 43.9137 284.656 45.2269ZM226.58 72.6321C227.357 72.251 228.305 71.8134 229.118 71.4259C228.794 71.5979 226.923 72.4932 226.58 72.6321ZM113.993 127.252C113.799 127.335 108.673 129.86 111.598 128.452C111.769 128.37 114.579 126.999 113.993 127.252ZM332.197 23.2097C332.042 23.2808 331.863 23.3622 331.654 23.4557C331.861 23.3614 332.041 23.2803 332.197 23.2097ZM318.195 29.6745C318.472 29.5247 317.026 30.1882 316.625 30.3851C316.503 30.4675 318.146 29.6999 318.195 29.6745ZM229.168 71.3721C229.632 71.1391 230.486 70.7462 231.064 70.4705C230.974 70.5329 229.379 71.2919 229.168 71.3721ZM196.153 87.1427C197.084 86.7064 198.227 86.1512 198.238 86.1213C198.259 86.1151 198.306 86.0965 198.383 86.0635C198.461 86.03 199.46 85.5379 199.899 85.3355C202.508 84.1293 189.894 90.1793 197.163 86.6114C196.826 86.7883 196.49 86.9654 196.153 87.1427ZM152.991 108.061C152.452 108.294 150.989 109.046 151.377 108.868C151.647 108.744 153.531 107.827 152.991 108.061ZM173.301 98.1627C173.141 98.2349 171.704 98.9527 171.673 98.9835C172.51 98.5939 174.03 97.8338 173.301 98.1627ZM148.921 110.013C148.589 110.171 148.185 110.416 148.225 110.399C148.568 110.249 149.488 109.763 148.921 110.013ZM329.581 24.2887C329.046 24.5217 327.522 25.2602 327.183 25.4482C327.117 25.4726 326.942 25.5454 326.622 25.6838C326.623 25.6833 326.624 25.6829 326.625 25.6824C326.169 25.8789 313.362 31.7871 321.978 27.8635C322.245 27.7423 321.873 27.8858 322.954 27.3912C323.025 27.3586 323.069 27.3613 323.289 27.2609C323.82 27.0178 326.59 25.7529 327.122 25.4887C327.128 25.4901 327.165 25.4771 327.241 25.4455C327.918 25.1662 329.965 24.1216 329.581 24.2887ZM176.163 96.7706C175.869 96.9045 174.952 97.3572 174.865 97.4201C175.325 97.207 176.846 96.46 176.163 96.7706ZM113.8 127.262C113.203 127.54 111.72 128.304 112.179 128.095C112.46 127.966 114.489 126.942 113.8 127.262ZM166.951 101.252C170.356 99.6221 167.761 100.857 168.269 100.58C167.83 100.804 167.391 101.028 166.951 101.252ZM345.486 17.0298C344.927 17.2805 345.56 16.9295 346.178 16.6768C346.372 16.5975 345.798 16.8895 345.486 17.0298ZM370.159 5.59604C369.921 5.68109 370.363 5.46881 370.746 5.29543C371.137 5.1183 371.527 4.95191 371.065 5.18638C370.996 5.21988 370.2 5.57862 370.159 5.59604ZM352.895 13.5733C352.545 13.7703 352.315 13.8806 351.27 14.354C352.802 13.6371 351.374 14.2647 352.895 13.5733ZM198.226 86.1231C198.233 86.1214 198.238 86.1198 198.238 86.1213C198.23 86.1235 198.227 86.1239 198.226 86.1231ZM145.737 111.579C145.3 111.762 144.112 112.345 144.478 112.197C144.513 112.182 145.572 111.682 145.737 111.579ZM327.183 25.4482C327.242 25.4265 327.214 25.4427 327.122 25.4887C327.116 25.4874 327.138 25.473 327.183 25.4482ZM152.116 108.437C152.082 108.477 153.897 107.6 153.969 107.562C154.993 107.023 152.863 108.071 152.116 108.437ZM101.841 133.144C101.749 133.192 102.373 132.942 102.733 132.741C103.011 132.585 102.187 132.964 101.841 133.144ZM356.451 11.9172C357.014 11.6573 357.827 11.2818 358 11.2294C357.577 11.4209 356.453 11.9368 356.451 11.9172ZM369.261 5.97726C368.559 6.33766 367.031 7.04861 366.024 7.51115C366.008 7.47617 368.579 6.30622 369.261 5.97726ZM331.175 23.5685C331.129 23.5881 329.655 24.2556 329.866 24.1869C330.179 24.0846 331.594 23.391 331.175 23.5685ZM104.639 131.79C105.273 131.456 103.772 132.137 103.114 132.511C102.776 132.702 104.532 131.846 104.639 131.79ZM142.007 113.364C141.165 113.793 143.279 112.787 143.561 112.619C143.169 112.809 142.306 113.212 142.007 113.364ZM170.882 99.258C168.17 100.487 169.691 99.908 170.16 99.6661C170.226 99.6319 170.948 99.2279 170.882 99.258ZM18.3591 174.996C17.9882 175.196 19.407 174.52 19.5766 174.405C19.6813 174.334 18.5963 174.867 18.3591 174.996ZM211.289 79.8313C211.176 79.8857 211.064 79.9397 210.953 79.9931C211.036 79.952 211.145 79.8992 211.289 79.8313ZM134.262 117.043C136.191 116.219 135.956 116.24 136.12 116.16C136.474 115.988 137.308 115.612 137.972 115.281C137.215 115.666 136.457 116.051 135.701 116.437C136.306 116.148 141.557 113.62 141.659 113.551C141.805 113.451 140.162 114.265 140.113 114.286C140.042 114.317 139.754 114.379 139.6 114.452C139.347 114.571 134.97 116.714 134.262 117.043ZM165.289 101.989C165.723 101.787 165.857 101.753 166.054 101.65C166.121 101.614 166.121 101.585 166.35 101.466C165.996 101.64 165.642 101.814 165.289 101.989ZM130.938 118.785C130.391 119.017 132.783 117.856 132.862 117.822C133.28 117.642 131.385 118.596 130.938 118.785ZM151.201 108.857C151.113 108.898 149.274 109.785 149.296 109.794C149.788 109.57 152.243 108.375 151.201 108.857ZM166.637 101.324C167.284 101.014 168.515 100.445 168.358 100.477C168.357 100.477 168.356 100.478 168.355 100.478C167.782 100.76 167.209 101.042 166.637 101.324ZM106.797 130.627C105.577 131.159 106.177 130.952 107.242 130.449C107.549 130.265 106.997 130.539 106.797 130.627ZM102.963 132.471C102.626 132.625 99.216 134.328 99.7524 134.101C99.9428 134.02 101.893 133.019 101.985 132.976C102.124 132.912 101.514 133.256 102.558 132.73C102.491 132.749 103.078 132.418 102.963 132.471ZM105.793 131.078C104.587 131.62 104.361 131.832 105.251 131.392C105.599 131.22 105.965 131 105.793 131.078ZM110.634 128.693C110.204 128.895 109.063 129.445 108.294 129.859C109.342 129.344 110.391 128.828 111.439 128.313C111.552 128.239 111.01 128.515 110.631 128.694C110.632 128.693 110.633 128.693 110.634 128.693ZM376.35 2.38324C375.363 2.82642 377.596 1.74826 377.638 1.73274C377.906 1.62673 376.81 2.17672 376.35 2.38324ZM10.677 177.979C10.4124 178.102 10.2272 178.158 9.66293 178.465C10.2498 178.194 10.8367 177.924 11.4235 177.653C11.8451 177.375 10.9663 177.844 10.677 177.979ZM8.38487 178.912C8.46556 178.869 7.98177 179.018 9.0587 178.535C9.78638 178.209 5.94376 180.208 5.23004 180.528C5.99132 180.12 7.69003 179.278 8.38487 178.912ZM1.45385 182.019C1.40619 182.035 2.8675 181.279 3.03941 181.196C3.94213 180.765 1.71149 181.929 1.45385 182.019ZM6.13819 179.65C5.44279 179.985 6.96131 179.2 7.4198 178.978C7.4712 178.97 6.24554 179.598 6.13819 179.65ZM366.187 5.75902C365.412 6.05387 364.777 6.48925 365.937 5.92189C365.992 5.89496 366.22 5.74677 366.187 5.75902ZM2.84701 181.209C3.54222 180.874 2.02414 181.66 1.56582 181.883C1.51623 181.89 2.7412 181.261 2.84701 181.209ZM365.596 5.87741C364.564 6.31019 364.978 6.27563 365.11 6.22066C365.673 5.9848 367.324 5.15476 367.731 4.94911C365.109 6.1937 366.077 5.67581 365.596 5.87741ZM360.971 8.11714C360.016 8.57586 362.484 7.46576 362.898 7.22937C362.446 7.44131 361.247 7.98453 360.971 8.11714ZM355.302 10.6869C354.808 10.9095 353.29 11.5965 353.037 11.7379C353.604 11.4717 355.106 10.803 355.302 10.6869ZM354.137 11.1504C353.329 11.4895 353.174 11.6593 354.081 11.2113C354.116 11.1939 354.166 11.1385 354.137 11.1504ZM349.708 13.1583C349.172 13.3663 348.608 13.7217 349.458 13.332C349.71 13.2166 349.764 13.1366 349.708 13.1583ZM364.247 6.33415C363.495 6.66634 362.612 7.14391 364.152 6.43718C363.602 6.7026 363.085 6.95283 362.536 7.21793C364.559 6.31805 364.415 6.28964 365.012 6.01677C365.851 5.63244 365.809 5.73006 365.654 5.82662C366.291 5.48307 369.189 4.13372 370.839 3.35032C369.372 4.01798 366.956 5.10941 365.548 5.75047C365.134 5.93935 364.733 6.14663 364.369 6.31353C363.782 6.5819 364.29 6.31513 364.25 6.33275C364.249 6.33324 364.248 6.33368 364.247 6.33415ZM343.882 15.8431C342.369 16.4962 343.32 16.1533 344.201 15.7303C344.238 15.712 343.921 15.8261 343.882 15.8431ZM0.757429 181.979C2.75856 180.999 1.33772 181.777 5.45653 179.597C3.73564 180.531 5.37694 179.679 5.04592 179.871C4.78026 180.025 3.75061 180.534 4.36061 180.26C3.5622 180.626 0.171978 182.366 0.017991 182.438C0.0194142 182.437 0.0208373 182.437 0.0222605 182.436C-0.0702168 182.479 0.1189 182.291 0.757429 181.979ZM355.2 10.4841C354.653 10.6201 354.531 10.8611 353.486 11.2472C352.241 11.9615 357.068 9.59339 357.787 9.37891C352.353 11.8758 361.427 7.81385 357.559 9.42452C360.705 8.03447 358.573 8.93392 359.046 8.69259C359.538 8.44144 361.292 7.65571 361.2 7.65491C361.199 7.65536 361.198 7.65584 361.197 7.65629C360.06 8.1858 359.091 8.6367 357.988 9.14988C359.097 8.73031 356.818 9.75593 356.08 10.0205C355.789 10.174 355.495 10.3285 355.2 10.4841ZM361.303 7.74991C361.164 7.81256 358.882 8.88114 359.033 8.83003C359.324 8.70788 362.666 7.14618 361.303 7.74991ZM371.572 2.94894C370.723 3.34774 369.418 3.93985 368.992 4.17395C369.791 3.80116 371.136 3.18928 371.572 2.94894ZM328.356 22.9262C327.279 23.4522 330.629 21.9146 329.648 22.3331C329.602 22.353 328.411 22.8997 328.356 22.9262ZM352.748 11.6331C351.663 12.0981 352.187 11.9694 353.005 11.5625C353.052 11.539 352.801 11.6105 352.748 11.6331ZM2.36003 181.148C2.41998 181.089 5.30762 179.637 5.818 179.377C5.53854 179.545 2.29121 181.215 2.36003 181.148ZM372.979 2.18313C371.334 2.86004 369.06 4.03744 368.838 4.13798C368.592 4.25042 368.96 4.03503 368.904 4.06025C368.784 4.11422 366.123 5.35758 366.023 5.40668C365.934 5.45041 366.427 5.28239 365.898 5.54741C366.851 5.07215 371.78 2.79031 371.988 2.68268C372.176 2.58874 370.725 3.2075 372.976 2.18456C372.977 2.18409 372.978 2.1836 372.979 2.18313ZM368.211 4.41759C368.902 4.1208 366.971 5.02459 366.579 5.19691C365.597 5.63278 368.1 4.46659 368.211 4.41759ZM363.751 6.46777C363.557 6.55203 361.675 7.41928 361.511 7.52352C362.45 7.12556 364.218 6.26456 363.751 6.46777ZM342.634 16.223C342.153 16.4485 340.791 17.0547 340.72 17.1122C341.218 16.8791 342.57 16.2778 342.634 16.223ZM12.0978 175.969C11.2845 176.362 13.1455 175.407 13.6936 175.139C13.7299 175.137 12.1671 175.936 12.0978 175.969ZM352.468 11.5243C352.228 11.6276 346.234 14.4107 345.421 14.7971C346.228 14.4439 352.175 11.7029 352.388 11.5952C352.463 11.558 352.505 11.5082 352.468 11.5243ZM365.378 5.54036C365.912 5.25568 366.274 5.13105 366.342 5.10007C366.965 4.81615 368.437 4.12154 368.126 4.30181C366.855 4.88079 364.343 6.09399 365.378 5.54036ZM342.154 16.2788C340.156 17.2133 344.011 15.4746 343.487 15.6781C343.455 15.6902 342.362 16.1814 342.154 16.2788ZM353.148 11.1998C353.608 10.9585 359.59 8.22111 360.493 7.80178C359.669 8.23813 358.994 8.50894 357.828 9.05051C357.513 9.19674 357.606 9.17679 357.572 9.19243C357.023 9.44694 357.425 9.23526 357.085 9.39192C356.849 9.50112 352.561 11.5126 353.148 11.1998ZM365.68 5.37477C365.968 5.22065 369.741 3.45277 369.837 3.41208C370.986 2.91778 365.938 5.2642 365.68 5.37477ZM352.568 11.4189C353.222 11.0538 356.189 9.7265 354.176 10.6872C353.984 10.7789 353.144 11.139 352.568 11.4189ZM342.344 16.1305C342.251 16.1715 340.14 17.1323 340.103 17.1692C340.427 17.0277 343.472 15.631 342.344 16.1305ZM343.39 15.5799C343.34 15.6034 343.839 15.4123 342.87 15.854C342.788 15.8916 342.627 15.9218 341.397 16.5048C341.148 16.6233 340.767 16.8279 340.796 16.8163C342.103 16.2824 345.97 14.3677 343.39 15.5799ZM365.734 5.31408C365.527 5.39156 365.989 5.12209 366.422 4.94815C366.608 4.87399 366.286 5.05666 365.734 5.31408ZM335.655 19.1973C336.889 18.5947 332.958 20.4014 332.805 20.4807C332.905 20.4555 335.544 19.2516 335.655 19.1973ZM13.8764 174.804C13.8755 174.804 13.8745 174.805 13.8736 174.805C14.8897 174.297 14.2736 174.638 14.3214 174.615C16.4959 173.552 15.8978 173.792 16.2322 173.614C16.9492 173.234 16.8637 173.355 18.0716 172.71C16.0729 173.772 17.9016 172.824 17.9699 172.817C18.2414 172.792 15.2624 174.138 14.2661 174.668C14.1273 174.742 15.1766 174.245 14.8216 174.435C13.6676 175.054 9.9776 176.756 13.8764 174.804ZM366.746 4.79283C367.235 4.5338 370.826 2.88745 369.885 3.3537C369.798 3.40049 366.028 5.17514 366.746 4.79283ZM197.593 83.9646C198.454 83.5219 196.415 84.4692 196.062 84.6612C195.882 84.759 197.212 84.1602 197.593 83.9646ZM183.475 90.6513C182.449 91.153 181.412 91.773 182.683 91.1397C182.819 91.0723 183.599 90.6076 183.475 90.6513ZM251.18 58.3885C250.087 58.8622 250.181 58.8962 250.972 58.522C251.251 58.39 251.215 58.3736 251.18 58.3885ZM210.078 77.9244C209.969 77.9734 208.727 78.5731 208.78 78.5661C209.245 78.3542 210.78 77.6068 210.078 77.9244ZM251.518 58.2182C250.885 58.5307 252.006 58.0587 252.761 57.6475C252.369 57.837 251.583 58.186 251.518 58.2182ZM350.296 12.2948C349.788 12.5608 348.181 13.2923 347.358 13.6774C347.222 13.6985 349.682 12.5856 350.296 12.2948ZM187.858 88.5816C187.433 88.7997 187.604 88.7289 187.91 88.5871C188.3 88.4065 188.906 88.1122 188.79 88.1464C188.765 88.1563 188.077 88.4772 187.898 88.5621C187.876 88.5726 187.862 88.5794 187.858 88.5816ZM286.001 42.044C285.295 42.398 287.579 41.3665 286.937 41.6221C286.906 41.6348 286.04 42.0244 286.001 42.044ZM295.881 37.4569C295.344 37.6979 293.038 38.7737 293.945 38.3757C294.088 38.313 295.851 37.4934 295.881 37.4569ZM16.2797 173.56C15.9759 173.671 17.6422 172.835 17.8834 172.72C17.9781 172.675 16.676 173.415 16.2797 173.56ZM244.173 61.6907C243.62 61.9574 242.17 62.633 241.923 62.7724C242.606 62.4446 244.373 61.6406 244.173 61.6907ZM192.312 86.433C191.446 86.8035 189.995 87.508 190.378 87.3843C191.98 86.6077 190.16 87.4345 192.312 86.433ZM255.08 56.4896C254.626 56.6997 254.303 56.9101 254.356 56.8879C254.853 56.6801 255.538 56.2966 255.08 56.4896ZM221.549 72.4225C221.514 72.4141 220.094 73.1021 220.291 73.0247C220.355 72.9991 221.578 72.4289 221.549 72.4225ZM331.428 20.9817C330.765 21.2652 332.757 20.3238 333.344 20.0792C333.645 19.9783 331.517 20.9433 331.428 20.9817ZM267.512 50.6608C267.566 50.5985 265.334 51.6665 266.229 51.2774C266.453 51.1797 267.494 50.6817 267.512 50.6608ZM288.992 40.5744C287.502 41.3122 293.836 38.3931 292.154 39.1218C292.02 39.1802 289.118 40.5117 288.992 40.5744ZM299.34 35.7864C299.076 35.9045 299.162 35.7407 300.26 35.278C300.405 35.2172 299.754 35.5524 299.872 35.5047C299.946 35.4749 302.29 34.4033 302.393 34.3529C302.507 34.2967 302.356 34.327 302.471 34.2691C302.608 34.2004 304.018 33.581 304.802 33.2175C306.242 32.5501 306.379 32.4535 306.497 32.3986C306.839 32.2401 307.42 31.9939 308.106 31.676C311.55 30.0789 316.854 27.5955 319.664 26.3663C317.181 27.4866 314.884 28.5792 312.44 29.7202C313.14 29.3269 308.828 31.4469 311.349 30.1993C310.198 30.7482 300.212 35.395 299.343 35.7851C299.342 35.7855 299.341 35.786 299.34 35.7864ZM179.404 92.5853C180.019 92.2451 176.783 93.8211 176.527 93.9944C176.958 93.7927 179.328 92.627 179.404 92.5853ZM194.328 85.2754C194.625 85.125 194.879 84.9195 196.465 84.1985C196.467 84.1978 196.468 84.1971 196.469 84.1964C196.936 83.9845 196.417 84.2541 196.505 84.2191C196.535 84.2078 198.003 83.5432 196.801 84.128C194.987 85.0109 196.604 84.1604 195.636 84.6255C195.519 84.6819 193.702 85.6016 193.812 85.5585C193.824 85.5541 194.372 85.2804 194.465 85.2399C194.815 85.0867 194.658 85.1885 194.707 85.1661C194.865 85.093 197.752 83.6595 198.199 83.4835C198.331 83.432 193.579 85.7474 193.39 85.8324C193.271 85.8857 193.292 85.8033 193.168 85.8562C193.105 85.8831 191.194 86.8312 190.94 86.9467C190.867 86.9802 190.811 87.0052 190.769 87.0235C191.07 86.9008 189.324 87.7414 189.367 87.6954C189.394 87.6725 190.598 87.0975 190.641 87.0784C190.66 87.0699 190.677 87.0628 190.693 87.056C190.436 87.1522 194.49 85.1999 193.599 85.589C194.763 85.0062 193.456 85.7172 194.328 85.2754ZM199.967 82.5188C199.848 82.5834 199.729 82.6481 199.611 82.7127C201.673 81.7031 204.032 80.6072 206.42 79.4628C207.025 79.1727 206.311 79.4686 207.109 79.0989C207.748 78.8027 208.466 78.5019 208.125 78.6747C208.042 78.7168 206.739 79.3129 206.092 79.6263C204.182 80.5503 204.691 80.3462 204.577 80.4018C204.456 80.4611 203.254 81.0095 202.602 81.3236C200.964 82.1135 200.224 82.4931 197.957 83.5511C199.248 82.9043 198.514 83.2002 199.967 82.5188ZM276.933 46.1361C277.004 46.078 278.381 45.4563 278.873 45.2225C278.806 45.279 277.431 45.8994 276.933 46.1361ZM76.3947 143.112C76.0003 143.35 79.0841 141.822 78.2587 142.2C78.0761 142.283 76.7817 142.919 76.3947 143.112ZM90.2439 136.242C90.6516 136.028 88.9797 136.829 88.9955 136.853C89.002 136.86 90.1914 136.269 90.2439 136.242ZM226.627 69.8146C226.705 69.7759 227.85 69.2406 227.886 69.2255C228.661 68.9008 224.891 70.6688 226.627 69.8146ZM107.062 127.854C105.635 128.587 109.969 126.456 108.632 127.082C108.565 127.114 107.131 127.819 107.062 127.854ZM113.078 124.875C112.733 125.046 111.196 125.792 111.181 125.812C111.159 125.843 112.918 124.989 113.078 124.875ZM255.325 56.2195C255.139 56.2609 257.204 55.3235 257.909 54.986C258.096 54.9441 256.039 55.8775 255.325 56.2195ZM242.465 62.2548C251.011 58.1798 249.15 59.1569 241.962 62.5153C241.94 62.496 241.924 62.5131 242.465 62.2548ZM253.452 57.0735C253.154 57.2434 252.181 57.693 251.523 58.0011C251.634 57.9282 252.983 57.2996 253.452 57.0735ZM72.7029 144.891C73.2205 144.594 75.5985 143.454 75.1852 143.676C75.0889 143.727 72.5155 145.005 72.7029 144.891ZM227.329 69.441C227.114 69.4984 229.685 68.2943 229.883 68.2105C230.688 67.8678 227.536 69.3325 227.329 69.441ZM267.515 50.4508C267.96 50.2067 269.229 49.6297 270.082 49.2307C269.698 49.4404 268.221 50.1204 267.515 50.4508ZM261.482 53.2557C261.529 53.2326 262.697 52.6868 262.752 52.6627C263.718 52.243 260.427 53.7807 261.482 53.2557ZM12.3338 175.245C12.3714 175.225 13.2384 174.787 13.2691 174.772C14.056 174.407 11.4538 175.722 12.3338 175.245Z" fill="#EF5A22"/>
</svg>
